<mxfile host="Electron" agent="Mozilla/5.0 (Macintosh; Intel Mac OS X 10_15_7) AppleWebKit/537.36 (KHTML, like Gecko) draw.io/26.0.9 Chrome/128.0.6613.186 Electron/32.2.5 Safari/537.36" version="26.0.9">
  <diagram id="prtHgNgQTEPvFCAcTncT" name="Page-1">
    <mxGraphModel dx="1012" dy="671" grid="1" gridSize="10" guides="1" tooltips="1" connect="1" arrows="1" fold="1" page="1" pageScale="1" pageWidth="827" pageHeight="1169" math="0" shadow="0">
      <root>
        <mxCell id="0" />
        <mxCell id="1" parent="0" />
        <mxCell id="dNxyNK7c78bLwvsdeMH5-19" value="SW Developer" style="swimlane;html=1;childLayout=stackLayout;resizeParent=1;resizeParentMax=0;horizontal=0;startSize=20;horizontalStack=0;" parent="1" vertex="1">
          <mxGeometry x="40" y="40" width="720" height="480" as="geometry" />
        </mxCell>
        <mxCell id="dNxyNK7c78bLwvsdeMH5-20" value="Initiate Env" style="swimlane;html=1;startSize=20;horizontal=0;" parent="dNxyNK7c78bLwvsdeMH5-19" vertex="1">
          <mxGeometry x="20" width="700" height="120" as="geometry" />
        </mxCell>
        <mxCell id="dNxyNK7c78bLwvsdeMH5-25" value="" style="edgeStyle=orthogonalEdgeStyle;rounded=0;orthogonalLoop=1;jettySize=auto;html=1;" parent="dNxyNK7c78bLwvsdeMH5-20" source="dNxyNK7c78bLwvsdeMH5-23" target="dNxyNK7c78bLwvsdeMH5-24" edge="1">
          <mxGeometry relative="1" as="geometry" />
        </mxCell>
        <mxCell id="dNxyNK7c78bLwvsdeMH5-23" value="" style="ellipse;whiteSpace=wrap;html=1;" parent="dNxyNK7c78bLwvsdeMH5-20" vertex="1">
          <mxGeometry x="40" y="40" width="40" height="40" as="geometry" />
        </mxCell>
        <mxCell id="dNxyNK7c78bLwvsdeMH5-24" value="Start Docker Dev environment" style="rounded=0;whiteSpace=wrap;html=1;fontFamily=Helvetica;fontSize=12;fontColor=#000000;align=center;" parent="dNxyNK7c78bLwvsdeMH5-20" vertex="1">
          <mxGeometry x="120" y="30" width="80" height="60" as="geometry" />
        </mxCell>
        <mxCell id="dNxyNK7c78bLwvsdeMH5-30" value="Stop Docker Dev environment" style="rounded=0;whiteSpace=wrap;html=1;fontFamily=Helvetica;fontSize=12;fontColor=#000000;align=center;" parent="dNxyNK7c78bLwvsdeMH5-20" vertex="1">
          <mxGeometry x="360" y="40" width="80" height="60" as="geometry" />
        </mxCell>
        <mxCell id="dNxyNK7c78bLwvsdeMH5-21" value="Coding" style="swimlane;html=1;startSize=20;horizontal=0;" parent="dNxyNK7c78bLwvsdeMH5-19" vertex="1">
          <mxGeometry x="20" y="120" width="700" height="120" as="geometry" />
        </mxCell>
        <mxCell id="dNxyNK7c78bLwvsdeMH5-26" value="Modify Code" style="rounded=0;whiteSpace=wrap;html=1;fontFamily=Helvetica;fontSize=12;fontColor=#000000;align=center;" parent="dNxyNK7c78bLwvsdeMH5-21" vertex="1">
          <mxGeometry x="120" y="30" width="80" height="60" as="geometry" />
        </mxCell>
        <mxCell id="dNxyNK7c78bLwvsdeMH5-22" value="Verify Functionality" style="swimlane;html=1;startSize=20;horizontal=0;" parent="dNxyNK7c78bLwvsdeMH5-19" vertex="1">
          <mxGeometry x="20" y="240" width="700" height="120" as="geometry" />
        </mxCell>
        <mxCell id="jSWEFb5r-YTdKiFztgMD-4" style="edgeStyle=orthogonalEdgeStyle;rounded=0;orthogonalLoop=1;jettySize=auto;html=1;" parent="dNxyNK7c78bLwvsdeMH5-22" source="jSWEFb5r-YTdKiFztgMD-1" target="dNxyNK7c78bLwvsdeMH5-28" edge="1">
          <mxGeometry relative="1" as="geometry" />
        </mxCell>
        <mxCell id="jSWEFb5r-YTdKiFztgMD-1" value="Test Functionality" style="rounded=0;whiteSpace=wrap;html=1;fontFamily=Helvetica;fontSize=12;fontColor=#000000;align=center;" parent="dNxyNK7c78bLwvsdeMH5-22" vertex="1">
          <mxGeometry x="120" y="30" width="80" height="60" as="geometry" />
        </mxCell>
        <mxCell id="jSWEFb5r-YTdKiFztgMD-7" value="Yes" style="edgeStyle=orthogonalEdgeStyle;rounded=0;orthogonalLoop=1;jettySize=auto;html=1;" parent="dNxyNK7c78bLwvsdeMH5-22" source="dNxyNK7c78bLwvsdeMH5-28" target="jSWEFb5r-YTdKiFztgMD-6" edge="1">
          <mxGeometry relative="1" as="geometry" />
        </mxCell>
        <mxCell id="dNxyNK7c78bLwvsdeMH5-28" value="Success" style="rhombus;whiteSpace=wrap;html=1;fontFamily=Helvetica;fontSize=12;fontColor=#000000;align=center;" parent="dNxyNK7c78bLwvsdeMH5-22" vertex="1">
          <mxGeometry x="250" y="30" width="60" height="60" as="geometry" />
        </mxCell>
        <mxCell id="jSWEFb5r-YTdKiFztgMD-6" value="Git Add / Commit / Push to Github Repo" style="whiteSpace=wrap;html=1;fontColor=#000000;" parent="dNxyNK7c78bLwvsdeMH5-22" vertex="1">
          <mxGeometry x="360" y="30" width="80" height="60" as="geometry" />
        </mxCell>
        <mxCell id="jSWEFb5r-YTdKiFztgMD-3" value="No" style="edgeStyle=orthogonalEdgeStyle;rounded=0;orthogonalLoop=1;jettySize=auto;html=1;entryX=1;entryY=0.5;entryDx=0;entryDy=0;" parent="dNxyNK7c78bLwvsdeMH5-19" source="dNxyNK7c78bLwvsdeMH5-28" target="dNxyNK7c78bLwvsdeMH5-26" edge="1">
          <mxGeometry relative="1" as="geometry">
            <Array as="points">
              <mxPoint x="300" y="180" />
            </Array>
          </mxGeometry>
        </mxCell>
        <mxCell id="jSWEFb5r-YTdKiFztgMD-5" style="edgeStyle=orthogonalEdgeStyle;rounded=0;orthogonalLoop=1;jettySize=auto;html=1;entryX=0.5;entryY=0;entryDx=0;entryDy=0;" parent="dNxyNK7c78bLwvsdeMH5-19" source="dNxyNK7c78bLwvsdeMH5-26" target="jSWEFb5r-YTdKiFztgMD-1" edge="1">
          <mxGeometry relative="1" as="geometry" />
        </mxCell>
        <mxCell id="jSWEFb5r-YTdKiFztgMD-23" value="Docker Prod Build" style="swimlane;html=1;startSize=20;horizontal=0;" parent="dNxyNK7c78bLwvsdeMH5-19" vertex="1">
          <mxGeometry x="20" y="360" width="700" height="120" as="geometry" />
        </mxCell>
        <mxCell id="jSWEFb5r-YTdKiFztgMD-49" style="edgeStyle=orthogonalEdgeStyle;rounded=0;orthogonalLoop=1;jettySize=auto;html=1;entryX=0;entryY=0.5;entryDx=0;entryDy=0;" parent="jSWEFb5r-YTdKiFztgMD-23" source="jSWEFb5r-YTdKiFztgMD-9" target="jSWEFb5r-YTdKiFztgMD-48" edge="1">
          <mxGeometry relative="1" as="geometry" />
        </mxCell>
        <mxCell id="jSWEFb5r-YTdKiFztgMD-9" value="Build Docker Prod Image, Push to Docker Hub" style="rounded=0;whiteSpace=wrap;html=1;fontFamily=Helvetica;fontSize=12;fontColor=#000000;align=center;" parent="jSWEFb5r-YTdKiFztgMD-23" vertex="1">
          <mxGeometry x="470" y="30" width="80" height="60" as="geometry" />
        </mxCell>
        <mxCell id="jSWEFb5r-YTdKiFztgMD-48" value="" style="ellipse;whiteSpace=wrap;html=1;" parent="jSWEFb5r-YTdKiFztgMD-23" vertex="1">
          <mxGeometry x="600" y="40" width="40" height="40" as="geometry" />
        </mxCell>
        <mxCell id="jSWEFb5r-YTdKiFztgMD-46" style="edgeStyle=orthogonalEdgeStyle;rounded=0;orthogonalLoop=1;jettySize=auto;html=1;entryX=0.5;entryY=1;entryDx=0;entryDy=0;exitX=0.5;exitY=0;exitDx=0;exitDy=0;" parent="dNxyNK7c78bLwvsdeMH5-19" source="jSWEFb5r-YTdKiFztgMD-6" target="dNxyNK7c78bLwvsdeMH5-30" edge="1">
          <mxGeometry relative="1" as="geometry" />
        </mxCell>
        <mxCell id="dNxyNK7c78bLwvsdeMH5-33" value="" style="edgeStyle=orthogonalEdgeStyle;rounded=0;orthogonalLoop=1;jettySize=auto;html=1;endArrow=classic;endFill=1;entryX=0.5;entryY=0;entryDx=0;entryDy=0;" parent="dNxyNK7c78bLwvsdeMH5-19" source="dNxyNK7c78bLwvsdeMH5-30" target="jSWEFb5r-YTdKiFztgMD-9" edge="1">
          <mxGeometry relative="1" as="geometry">
            <mxPoint x="500" y="70" as="targetPoint" />
          </mxGeometry>
        </mxCell>
        <mxCell id="jSWEFb5r-YTdKiFztgMD-51" style="edgeStyle=orthogonalEdgeStyle;rounded=0;orthogonalLoop=1;jettySize=auto;html=1;entryX=0.5;entryY=0;entryDx=0;entryDy=0;" parent="dNxyNK7c78bLwvsdeMH5-19" source="dNxyNK7c78bLwvsdeMH5-24" target="dNxyNK7c78bLwvsdeMH5-26" edge="1">
          <mxGeometry relative="1" as="geometry" />
        </mxCell>
        <mxCell id="jSWEFb5r-YTdKiFztgMD-24" value="End User (Production)" style="swimlane;html=1;childLayout=stackLayout;resizeParent=1;resizeParentMax=0;horizontal=0;startSize=20;horizontalStack=0;" parent="1" vertex="1">
          <mxGeometry x="40" y="560" width="720" height="600" as="geometry" />
        </mxCell>
        <mxCell id="jSWEFb5r-YTdKiFztgMD-26" value="Educate" style="swimlane;html=1;startSize=20;horizontal=0;" parent="jSWEFb5r-YTdKiFztgMD-24" vertex="1">
          <mxGeometry x="20" width="700" height="120" as="geometry" />
        </mxCell>
        <mxCell id="jSWEFb5r-YTdKiFztgMD-27" value="" style="edgeStyle=orthogonalEdgeStyle;rounded=0;orthogonalLoop=1;jettySize=auto;html=1;" parent="jSWEFb5r-YTdKiFztgMD-26" source="jSWEFb5r-YTdKiFztgMD-28" target="jSWEFb5r-YTdKiFztgMD-29" edge="1">
          <mxGeometry relative="1" as="geometry" />
        </mxCell>
        <mxCell id="jSWEFb5r-YTdKiFztgMD-28" value="" style="ellipse;whiteSpace=wrap;html=1;" parent="jSWEFb5r-YTdKiFztgMD-26" vertex="1">
          <mxGeometry x="40" y="40" width="40" height="40" as="geometry" />
        </mxCell>
        <mxCell id="jSWEFb5r-YTdKiFztgMD-29" value="Readme.md on Github" style="rounded=0;whiteSpace=wrap;html=1;fontFamily=Helvetica;fontSize=12;fontColor=#000000;align=center;" parent="jSWEFb5r-YTdKiFztgMD-26" vertex="1">
          <mxGeometry x="120" y="30" width="140" height="60" as="geometry" />
        </mxCell>
        <mxCell id="jSWEFb5r-YTdKiFztgMD-33" value="Prepare" style="swimlane;html=1;startSize=20;horizontal=0;" parent="jSWEFb5r-YTdKiFztgMD-24" vertex="1">
          <mxGeometry x="20" y="120" width="700" height="120" as="geometry" />
        </mxCell>
        <mxCell id="jSWEFb5r-YTdKiFztgMD-34" value="Create docker-compose.yml and .env" style="rounded=0;whiteSpace=wrap;html=1;fontFamily=Helvetica;fontSize=12;fontColor=#000000;align=center;" parent="jSWEFb5r-YTdKiFztgMD-33" vertex="1">
          <mxGeometry x="120" y="30" width="140" height="60" as="geometry" />
        </mxCell>
        <mxCell id="jSWEFb5r-YTdKiFztgMD-35" value="Pull" style="swimlane;html=1;startSize=20;horizontal=0;" parent="jSWEFb5r-YTdKiFztgMD-24" vertex="1">
          <mxGeometry x="20" y="240" width="700" height="120" as="geometry" />
        </mxCell>
        <mxCell id="jSWEFb5r-YTdKiFztgMD-37" value="docker compose pull (latest)" style="rounded=0;whiteSpace=wrap;html=1;fontFamily=Helvetica;fontSize=12;fontColor=#000000;align=center;" parent="jSWEFb5r-YTdKiFztgMD-35" vertex="1">
          <mxGeometry x="120" y="30" width="140" height="60" as="geometry" />
        </mxCell>
        <mxCell id="jSWEFb5r-YTdKiFztgMD-42" style="edgeStyle=orthogonalEdgeStyle;rounded=0;orthogonalLoop=1;jettySize=auto;html=1;entryX=0.5;entryY=0;entryDx=0;entryDy=0;" parent="jSWEFb5r-YTdKiFztgMD-24" source="jSWEFb5r-YTdKiFztgMD-34" target="jSWEFb5r-YTdKiFztgMD-37" edge="1">
          <mxGeometry relative="1" as="geometry" />
        </mxCell>
        <mxCell id="jSWEFb5r-YTdKiFztgMD-43" style="edgeStyle=orthogonalEdgeStyle;rounded=0;orthogonalLoop=1;jettySize=auto;html=1;entryX=0.5;entryY=0;entryDx=0;entryDy=0;" parent="jSWEFb5r-YTdKiFztgMD-24" source="jSWEFb5r-YTdKiFztgMD-37" target="jSWEFb5r-YTdKiFztgMD-45" edge="1">
          <mxGeometry relative="1" as="geometry" />
        </mxCell>
        <mxCell id="jSWEFb5r-YTdKiFztgMD-44" value="Run" style="swimlane;html=1;startSize=20;horizontal=0;" parent="jSWEFb5r-YTdKiFztgMD-24" vertex="1">
          <mxGeometry x="20" y="360" width="700" height="120" as="geometry" />
        </mxCell>
        <mxCell id="jSWEFb5r-YTdKiFztgMD-45" value="docker compose up -d" style="rounded=0;whiteSpace=wrap;html=1;fontFamily=Helvetica;fontSize=12;fontColor=#000000;align=center;" parent="jSWEFb5r-YTdKiFztgMD-44" vertex="1">
          <mxGeometry x="120" y="30" width="140" height="60" as="geometry" />
        </mxCell>
        <mxCell id="jSWEFb5r-YTdKiFztgMD-52" value="Lifecycle" style="swimlane;html=1;startSize=20;horizontal=0;" parent="jSWEFb5r-YTdKiFztgMD-24" vertex="1">
          <mxGeometry x="20" y="480" width="700" height="120" as="geometry" />
        </mxCell>
        <mxCell id="jSWEFb5r-YTdKiFztgMD-53" value="docker compose down" style="rounded=0;whiteSpace=wrap;html=1;fontFamily=Helvetica;fontSize=12;fontColor=#000000;align=center;" parent="jSWEFb5r-YTdKiFztgMD-52" vertex="1">
          <mxGeometry x="120" y="30" width="140" height="60" as="geometry" />
        </mxCell>
        <mxCell id="jSWEFb5r-YTdKiFztgMD-50" style="edgeStyle=orthogonalEdgeStyle;rounded=0;orthogonalLoop=1;jettySize=auto;html=1;" parent="jSWEFb5r-YTdKiFztgMD-24" source="jSWEFb5r-YTdKiFztgMD-29" target="jSWEFb5r-YTdKiFztgMD-34" edge="1">
          <mxGeometry relative="1" as="geometry" />
        </mxCell>
        <mxCell id="jSWEFb5r-YTdKiFztgMD-54" style="edgeStyle=orthogonalEdgeStyle;rounded=0;orthogonalLoop=1;jettySize=auto;html=1;entryX=1;entryY=0.5;entryDx=0;entryDy=0;" parent="jSWEFb5r-YTdKiFztgMD-24" source="jSWEFb5r-YTdKiFztgMD-53" target="jSWEFb5r-YTdKiFztgMD-37" edge="1">
          <mxGeometry relative="1" as="geometry">
            <Array as="points">
              <mxPoint x="330" y="540" />
              <mxPoint x="330" y="300" />
            </Array>
          </mxGeometry>
        </mxCell>
        <mxCell id="jSWEFb5r-YTdKiFztgMD-55" style="edgeStyle=orthogonalEdgeStyle;rounded=0;orthogonalLoop=1;jettySize=auto;html=1;entryX=0.5;entryY=0;entryDx=0;entryDy=0;" parent="jSWEFb5r-YTdKiFztgMD-24" source="jSWEFb5r-YTdKiFztgMD-45" target="jSWEFb5r-YTdKiFztgMD-53" edge="1">
          <mxGeometry relative="1" as="geometry" />
        </mxCell>
      </root>
    </mxGraphModel>
  </diagram>
</mxfile>
